<!--?xml version="1.0" encoding="utf-8"?-->
<svg width="192" height="48" viewBox="0 0 192 48" fill="none" xmlns="http://www.w3.org/2000/svg">
    <g clip-path="url(#clip0_1_201)">
        <path
            d="M39.2498 41.0854L32.1289 20.5169C32.2114 21.6926 29.3393 24.7812 27.8595 26.3848C20.058 34.6658 11.5604 39.7809 6.93007 42.1992L19.4393 10.4364L24.9823 26.5498C24.9823 26.5498 28.4061 22.9662 30.3242 20.3158C31.0358 19.3361 31.2317 18.0677 30.8398 16.9178L25.0338 0H13.7828V0.427973C15.572 1.0622 17.1138 4.12504 18.0677 6.49694L4.05801 42.0496C3.09894 44.3236 1.65517 46.9894 0 47.5772V48.0052H4.64067C4.64067 48.0052 17.8666 38.4454 26.3745 30.4325L32.4538 48.0052H43.6945V47.572C41.797 46.8965 40.1779 43.4986 39.2446 41.0906"
            fill="white"></path>
        <path
            d="M146.893 12.5818H147.46V17.7845H146.996L143.655 13.5202V17.7845H143.082V12.5818H143.629L146.893 16.7481V12.5818Z"
            fill="white"></path>
        <path
            d="M153.405 13.1183H150.249V14.8921H153.075V15.4283H150.249V17.2485H153.441V17.7847H149.661V12.582H153.405V13.1183Z"
            fill="white"></path>
        <path
            d="M158.495 12.5663H158.974L160.392 16.9131L161.872 12.5818H162.485L160.634 17.8206H160.139L158.721 13.6027L157.293 17.8206H156.808L154.957 12.5818H155.597L157.071 16.9131L158.495 12.5663Z"
            fill="white"></path>
        <path
            d="M170.781 17.7847H170.188V15.7274L168.038 12.582H168.75L170.493 15.186L172.251 12.582H172.932L170.781 15.7171V17.7847Z"
            fill="white"></path>
        <path
            d="M176.563 17.8722C174.99 17.8722 173.933 16.6346 173.933 15.1909C173.933 13.7471 175.005 12.4941 176.578 12.4941C178.151 12.4941 179.208 13.7317 179.208 15.1754C179.208 16.6192 178.135 17.8722 176.563 17.8722ZM176.563 13.0356C175.382 13.0356 174.536 13.9843 174.536 15.1754C174.536 16.3665 175.392 17.3308 176.578 17.3308C177.764 17.3308 178.604 16.382 178.604 15.1909C178.604 13.9998 177.749 13.0356 176.563 13.0356Z"
            fill="white"></path>
        <path
            d="M184.751 17.7845L183.25 15.7632H181.77V17.7845H181.188V12.5869H183.415C184.555 12.5869 185.287 13.2005 185.287 14.139C185.287 15.0104 184.694 15.5105 183.884 15.6601L185.473 17.7845H184.756H184.751ZM183.369 13.1283H181.77V15.2373H183.359C184.137 15.2373 184.689 14.8351 184.689 14.1596C184.689 13.4841 184.199 13.1283 183.364 13.1283"
            fill="white"></path>
        <path
            d="M191.68 17.7845H190.948L188.958 15.2631L187.854 16.3872V17.7845H187.272V12.5818H187.854V15.6859L190.83 12.5818H191.582L189.365 14.8557L191.68 17.7845Z"
            fill="white"></path>
        <path
            d="M71.9871 35.8677H71.4612V31.8509H72.0077C72.3532 33.8051 73.864 35.0426 75.3542 35.0426C76.4112 35.0426 77.1744 34.4394 77.1744 33.2379C77.1744 32.5831 76.6845 31.8354 75.8286 31.3971L74.1012 30.4845C72.5543 29.7007 71.6262 28.8396 71.6262 27.0349C71.6262 25.5396 73.0287 24.2969 74.7922 24.2969C75.8647 24.2969 76.468 24.6424 77.0145 25.0446C77.2311 24.8641 77.4528 24.5908 77.5405 24.2041H78.0509V28.2157H77.525C77.3961 26.7565 76.8134 25.0961 74.9056 25.0961C74.1579 25.0961 73.4309 25.6427 73.4309 26.5554C73.4309 27.1019 73.9207 27.9218 74.8901 28.4168L76.6381 29.314C77.9323 29.9895 78.9842 31.1032 78.9842 32.5418C78.9842 34.5322 77.2362 35.8625 75.3645 35.8625C73.9826 35.8625 73.106 35.1303 72.5234 35.0066C72.3068 35.187 72.0851 35.4655 71.9974 35.8625"
            fill="white"></path>
        <path
            d="M94.2105 35.3571C94.1023 34.9189 93.9733 34.4806 93.7361 34.3156C92.808 35.285 91.6272 35.8676 90.3485 35.8676C87.2702 35.8676 84.759 33.2585 84.759 30.0822C84.759 26.906 87.2702 24.2969 90.3485 24.2969C91.6221 24.2969 92.808 24.8641 93.7361 25.8489C93.9733 25.6685 94.1023 25.2663 94.2105 24.8073H94.721V28.8241H94.1951C93.7052 26.4522 92.2305 25.1734 90.4258 25.1734C87.9302 25.1734 87.2237 27.8186 87.2237 30.0822C87.2237 32.3459 87.9353 34.991 90.4258 34.991C92.2305 34.991 93.7001 33.6762 94.1951 31.3404H94.721V35.3571H94.2105Z"
            fill="white"></path>
        <path
            d="M100.955 35.0272C102.466 35.0272 102.683 34.7178 102.683 32.8925V27.2721C102.683 25.4468 102.466 25.1374 100.955 25.1374V24.6063H109.767L109.912 27.1793H109.386L109.293 26.8132C109.04 25.8438 108.855 25.4261 107.184 25.4261H104.4V29.3501H105.4C107.22 29.3501 107.509 29.1129 107.509 27.5969H108.035V31.9231H107.509C107.509 30.3917 107.22 30.1699 105.4 30.1699H104.4V32.5986C104.4 34.4239 104.637 34.7333 106.148 34.7333H107.787C109.463 34.7333 109.664 34.3156 109.901 33.3462L109.994 32.9801H110.52L110.376 35.5531H100.966V35.022L100.955 35.0272Z"
            fill="white"></path>
        <path
            d="M125.417 27.2721C125.417 25.4468 125.18 25.1374 123.669 25.1374V24.6063H127.985V25.1374C126.453 25.1374 126.237 25.4468 126.237 27.2721V35.8677H125.783L118.249 26.8544V32.8925C118.249 34.7178 118.487 35.0272 119.997 35.0272V35.5583H115.702V35.0272C117.213 35.0272 117.43 34.7178 117.43 32.8925V27.2721C117.43 25.4468 117.213 25.1374 115.702 25.1374V24.6063H119.343L125.422 31.8664V27.2669L125.417 27.2721Z"
            fill="white"></path>
        <path
            d="M133.079 35.0271C134.59 35.0271 134.807 34.7177 134.807 32.8923V27.272C134.807 25.4466 134.59 25.1373 133.079 25.1373V24.6113H138.524C142.747 24.6113 144.583 27.076 144.583 30.0873C144.583 33.0986 142.742 35.5633 138.524 35.5633H133.079V35.0322V35.0271ZM136.519 32.6758C136.519 34.4444 136.756 34.7383 138.267 34.7383H138.576C141.525 34.7383 142.124 32.1447 142.124 30.0873C142.124 28.03 141.52 25.4363 138.576 25.4363H136.519V32.6809V32.6758Z"
            fill="white"></path>
        <path
            d="M173.922 27.2721C173.922 25.4468 173.685 25.1374 172.174 25.1374V24.6063H176.485V25.1374C174.953 25.1374 174.737 25.4468 174.737 27.2721V35.8677H174.283L166.75 26.8544V32.8925C166.75 34.7178 166.987 35.0272 168.498 35.0272V35.5583H164.202V35.0272C165.713 35.0272 165.935 34.7178 165.935 32.8925V27.2721C165.935 25.4468 165.718 25.1374 164.202 25.1374V24.6063H167.843L173.922 31.8664V27.2669V27.2721Z"
            fill="white"></path>
        <path
            d="M191.737 27.1843H191.211L191.118 26.8182C190.881 25.8488 190.68 25.4312 189.009 25.4312H187.189V32.8923C187.189 34.7177 187.426 35.0271 188.937 35.0271V35.5582H183.75V35.0271C185.261 35.0271 185.477 34.7177 185.477 32.8923V25.4312H183.657C182.002 25.4312 181.801 25.8488 181.563 26.8182L181.471 27.1843H180.924L181.089 24.6113H191.592L191.737 27.1843Z"
            fill="white"></path>
        <path
            d="M64.9643 33.944L61.6282 24.3018H58.9881V24.3997C59.4109 24.5493 59.7719 25.266 59.9936 25.8229L56.709 34.1658C56.4822 34.6969 56.147 35.3259 55.7551 35.46V35.558H56.8431C56.8431 35.558 59.9472 33.315 61.9427 31.4329L63.371 35.558H66.0059V35.4548C65.5624 35.295 65.1808 34.5009 64.9643 33.9337V33.944ZM57.3794 34.2019L60.3133 26.751L61.7725 31.0101C60.0916 32.6498 58.3591 33.6914 57.3742 34.207L57.3794 34.2019Z"
            fill="white"></path>
        <path
            d="M158.289 33.944L154.952 24.3018H152.312V24.3997C152.735 24.5493 153.096 25.266 153.318 25.8229L150.033 34.1658C149.806 34.6969 149.471 35.3259 149.079 35.46V35.558H150.167C150.167 35.558 153.271 33.315 155.267 31.4329L156.695 35.558H159.33V35.4548C158.887 35.295 158.505 34.5009 158.289 33.9337V33.944ZM150.704 34.2019L153.638 26.751L155.097 31.0101C153.416 32.6498 151.683 33.6914 150.698 34.207L150.704 34.2019Z"
            fill="white"></path>
    </g>
    <defs>
        <clipPath id="clip0_1_201">
            <rect width="191.737" height="48" fill="white"></rect>
        </clipPath>
    </defs>
</svg>